<svg width="80" height="26" viewBox="0 0 80 26" fill="none" xmlns="http://www.w3.org/2000/svg">
<path d="M8.72421 20H4.39426L0.0857416 9.11081H4.48L6.58067 16.2702L8.6599 9.11081H13.0542L8.72421 20ZM13.0733 14.5554C13.0733 13.7123 13.2233 12.9406 13.5234 12.2404C13.8235 11.5402 14.2522 10.9471 14.8095 10.4612C15.3668 9.96108 16.0385 9.57525 16.8244 9.30373C17.6104 9.03222 18.4821 8.89646 19.4396 8.89646C20.397 8.89646 21.2616 9.03222 22.0333 9.30373C22.8192 9.57525 23.4909 9.96108 24.0482 10.4612C24.6055 10.9471 25.0342 11.5402 25.3343 12.2404C25.6344 12.9263 25.7844 13.698 25.7844 14.5554C25.7844 15.3985 25.6273 16.1702 25.3129 16.8704C25.0128 17.5707 24.5841 18.1708 24.0267 18.671C23.4694 19.1569 22.7978 19.5356 22.0118 19.8071C21.2401 20.0786 20.3827 20.2144 19.4396 20.2144C18.4821 20.2144 17.6104 20.0786 16.8244 19.8071C16.0385 19.5356 15.3668 19.1569 14.8095 18.671C14.2522 18.1708 13.8235 17.5707 13.5234 16.8704C13.2233 16.1702 13.0733 15.3985 13.0733 14.5554ZM17.2532 14.5554C17.2532 15.2842 17.4389 15.8558 17.8105 16.2702C18.1963 16.6704 18.7322 16.8704 19.4181 16.8704C20.0898 16.8704 20.6185 16.6704 21.0044 16.2702C21.4045 15.8558 21.6045 15.2842 21.6045 14.5554C21.6045 13.8266 21.4116 13.2621 21.0258 12.862C20.64 12.4476 20.1041 12.2404 19.4181 12.2404C18.7465 12.2404 18.2178 12.4476 17.8319 12.862C17.4461 13.2621 17.2532 13.8266 17.2532 14.5554ZM27.1722 4.35215H31.245V20H27.1722V4.35215Z" fill="#FFF9F9"/>
<path d="M44.2745 20V9.11081H48.1757L48.2186 10.547C48.633 10.0325 49.1332 9.63241 49.7191 9.3466C50.305 9.04651 50.9481 8.89646 51.6483 8.89646C52.5057 8.89646 53.2416 9.07509 53.8561 9.43234C54.4706 9.7896 54.9422 10.3041 55.2709 10.9757C55.6996 10.3183 56.2497 9.81104 56.9214 9.45378C57.593 9.08223 58.3576 8.89646 59.215 8.89646C60.5583 8.89646 61.6086 9.28944 62.366 10.0754C63.1377 10.8614 63.5235 11.9617 63.5235 13.3765V20H59.4508V14.2553C59.4508 13.6837 59.3222 13.2478 59.0649 12.9478C58.8077 12.6477 58.4433 12.4976 57.9717 12.4976C57.3715 12.4976 56.8785 12.6977 56.4927 13.0978C56.1211 13.4836 55.9354 14.0195 55.9354 14.7055V20H51.8626V14.2553C51.8626 13.6837 51.734 13.2478 51.4768 12.9478C51.2196 12.6477 50.8552 12.4976 50.3836 12.4976C49.7834 12.4976 49.2904 12.6977 48.9045 13.0978C48.533 13.4836 48.3472 14.0195 48.3472 14.7055V20H44.2745ZM71.2503 20.2144C70.2928 20.2144 69.4211 20.0786 68.6352 19.8071C67.8492 19.5356 67.1704 19.1569 66.5988 18.671C66.0415 18.1708 65.6056 17.5778 65.2912 16.8919C64.9769 16.1916 64.8197 15.42 64.8197 14.5768C64.8197 13.7337 64.9626 12.9692 65.2484 12.2833C65.5485 11.583 65.9629 10.9828 66.4916 10.4827C67.0347 9.98252 67.6849 9.59668 68.4422 9.32517C69.1996 9.03936 70.0356 8.89646 70.9502 8.89646C71.8505 8.89646 72.665 9.03222 73.3938 9.30373C74.1369 9.56096 74.7728 9.9325 75.3016 10.4184C75.8303 10.89 76.2376 11.4687 76.5234 12.1546C76.8235 12.8263 76.9735 13.5765 76.9735 14.4054C76.9735 14.5197 76.9664 14.6483 76.9521 14.7912C76.9378 14.9341 76.9164 15.1056 76.8878 15.3056H69.0424C69.1853 15.8773 69.4926 16.306 69.9642 16.5918C70.45 16.8776 71.0788 17.0276 71.8505 17.0419C72.4221 17.0419 72.9294 16.9633 73.3724 16.8061C73.8297 16.6346 74.1869 16.3989 74.4442 16.0988L76.2233 18.4995C75.6803 19.0283 74.9586 19.4498 74.0583 19.7642C73.1723 20.0643 72.2363 20.2144 71.2503 20.2144ZM73.158 13.7409C73.058 13.1978 72.8222 12.7834 72.4507 12.4976C72.0934 12.2118 71.629 12.0689 71.0574 12.0689C70.5143 12.0689 70.0642 12.2189 69.7069 12.519C69.3497 12.8191 69.1139 13.2264 68.9996 13.7409H73.158Z" fill="#4D4D4D"/>
<path d="M34.0664 10.9089L34.0664 18.5644" stroke="#FFF9F9" stroke-width="0.76555" stroke-linecap="round"/>
<path d="M36.5664 6.50708L36.5664 22.9664" stroke="#FFF9F9" stroke-width="0.76555" stroke-linecap="round"/>
<path d="M39.0664 4.21045L39.0664 25.2631" stroke="#D00317" stroke-width="0.76555" stroke-linecap="round"/>
<path d="M41.5664 10.9089L41.5664 18.5644" stroke="#4D4D4D" stroke-width="0.76555" stroke-linecap="round"/>
</svg>
